# xmcd
#
# Track frame offsets: 
#        150
#        17592
#        40290
#        62602
#        82637
#        100725
#        121152
#        148730
#        171300
#
# Disc length: 2631 seconds
#
# Revision: 0
# Processed by: cddbd v1.5.1PL2 Copyright (c) Steve Scherf et al.
# Submitted via: ExactAudioCopy v0.95b4
#
DISCID=690a4509
DTITLE=Mystery Slang - River Towns
DYEAR=1992
DGENRE=Blues
TTITLE0=Off Them Metal Walls
TTITLE1=Stranded Man
TTITLE2=Cooler Girl (Blues)
TTITLE3=You're A Fury
TTITLE4=Shakers Inn
TTITLE5=The Bears Run
TTITLE6=Last Call
TTITLE7=Calling Shelter
TTITLE8=Lonesome Pride
EXTD=
EXTT0=
EXTT1=
EXTT2=
EXTT3=
EXTT4=
EXTT5=
EXTT6=
EXTT7=
EXTT8=
PLAYORDER=
